<?xml version="1.0" standalone="no"?>
<!DOCTYPE svg PUBLIC "-//W3C//DTD SVG 20010904//EN"
 "http://www.w3.org/TR/2001/REC-SVG-20010904/DTD/svg10.dtd">
<svg version="1.0" xmlns="http://www.w3.org/2000/svg"
 width="680.000000pt" height="680.000000pt" viewBox="0 0 680.000000 680.000000"
 preserveAspectRatio="xMidYMid meet">
<metadata>
Created by potrace 1.11, written by Peter Selinger 2001-2013
</metadata>
<g transform="translate(0.000000,680.000000) scale(0.100000,-0.100000)"
fill="#000000" stroke="none">
<path d="M1227 6789 c-169 -40 -306 -166 -358 -329 -42 -131 -20 -301 52 -408
16 -24 26 -48 23 -54 -4 -6 -2 -8 3 -5 14 9 35 -17 25 -29 -4 -5 -3 -6 2 -2
10 8 36 -14 29 -24 -2 -5 3 -8 12 -8 11 0 15 -5 11 -16 -3 -8 -2 -12 4 -9 6 3
10 2 10 -3 0 -4 -44 -37 -97 -72 -174 -113 -338 -300 -433 -490 -81 -161 -128
-365 -135 -588 -1 -34 -4 -63 -6 -65 -124 -86 -170 -133 -209 -212 -45 -89
-52 -172 -25 -282 23 -93 65 -201 96 -244 10 -14 19 -32 21 -40 2 -8 6 -16 9
-19 24 -22 77 -105 72 -113 -3 -6 -1 -7 5 -3 29 18 36 -39 37 -287 l0 -248
-38 -32 c-62 -52 -164 -183 -202 -260 -59 -120 -59 -241 0 -359 13 -27 33 -58
45 -70 19 -21 24 -33 21 -51 -1 -5 3 -6 9 -2 5 3 13 -1 17 -10 3 -10 23 -34
44 -55 21 -21 35 -41 31 -45 -4 -3 -2 -6 3 -5 22 5 34 -1 40 -20 4 -11 11 -18
16 -15 11 8 11 15 13 -270 l2 -240 -48 -63 c-146 -192 -225 -414 -201 -559 11
-64 69 -193 86 -193 4 0 5 -5 1 -12 -4 -6 -3 -8 3 -5 12 7 65 -48 55 -58 -3
-3 1 -3 10 0 11 5 22 -2 33 -22 9 -15 14 -19 10 -9 -5 16 -1 15 20 -6 14 -14
39 -31 55 -38 16 -7 28 -16 25 -20 -3 -4 2 -11 11 -14 10 -4 13 -2 8 6 -4 7
-3 8 5 4 7 -5 31 -47 55 -94 23 -48 52 -103 63 -124 12 -20 19 -39 15 -44 -4
-4 -2 -4 4 -1 6 4 19 -9 30 -28 10 -19 22 -35 26 -35 5 0 8 -10 9 -22 0 -13 3
-17 6 -10 6 15 60 -57 54 -73 -1 -5 1 -7 5 -2 10 9 45 -23 38 -35 -3 -4 -2 -8
3 -7 21 4 33 -2 33 -16 0 -8 7 -15 15 -15 13 0 19 -12 16 -32 0 -4 6 -5 14 -2
8 4 15 1 15 -5 0 -6 6 -11 14 -11 8 0 23 -10 33 -23 10 -13 26 -26 37 -30 12
-5 16 -13 12 -23 -5 -14 -4 -15 9 -4 14 12 19 7 16 -13 -1 -5 3 -6 9 -2 5 3
10 1 10 -4 0 -6 5 -11 11 -11 5 0 7 4 4 10 -3 5 0 7 9 4 8 -3 12 -12 10 -19
-4 -10 1 -12 15 -8 18 4 20 2 14 -13 -6 -17 -5 -17 10 -5 14 11 18 11 23 -4 5
-13 9 -14 15 -3 7 10 9 9 10 -4 3 -31 4 -36 11 -44 4 -3 6 3 3 14 -5 28 21 18
29 -11 5 -22 5 -22 20 -2 13 17 15 17 16 4 0 -9 8 -23 17 -30 9 -8 14 -9 10
-3 -4 7 2 14 13 17 13 3 20 0 20 -9 0 -8 5 -14 11 -14 5 0 8 -4 5 -8 -2 -4 4
-8 15 -8 19 0 18 1 -3 19 l-23 18 23 -11 c12 -6 27 -8 32 -5 5 3 12 0 16 -6 4
-8 3 -9 -4 -5 -7 4 -12 2 -12 -3 0 -6 6 -11 13 -12 6 0 20 -2 30 -4 11 -2 15
1 10 8 -4 7 1 6 10 -2 11 -9 17 -10 17 -2 0 6 5 11 11 11 5 0 7 -5 4 -10 -4
-7 671 -9 2037 -8 1689 3 2043 5 2040 16 -1 8 2 11 8 7 6 -3 8 -11 5 -16 -4
-5 -2 -9 3 -9 5 0 14 10 21 23 6 12 9 14 7 4 -5 -14 0 -17 32 -14 20 2 46 8
57 14 11 6 28 9 38 8 9 -2 15 1 12 5 -3 5 0 12 6 16 6 3 15 1 19 -6 5 -8 9 -7
14 5 3 9 11 13 17 9 7 -4 9 -3 6 4 -4 5 -13 9 -20 8 -31 -6 -57 -18 -57 -28 0
-6 -3 -8 -6 -5 -4 3 -16 2 -27 -4 -14 -8 -18 -8 -13 0 4 6 2 11 -3 11 -6 0
-11 5 -11 11 0 8 4 8 14 0 10 -9 20 -9 40 0 14 7 26 16 26 20 0 4 8 6 18 4 22
-3 54 13 47 25 -3 5 -1 11 4 14 10 7 9 -13 -2 -31 -4 -6 -2 -15 4 -19 8 -4 9
-3 5 4 -4 7 -1 12 8 12 10 0 13 8 10 28 -3 20 -2 23 6 12 5 -8 10 -11 10 -6 0
5 7 3 15 -4 12 -10 15 -10 15 3 0 9 9 21 19 27 16 8 22 6 31 -7 11 -17 11 -17
6 1 -5 13 -2 17 9 13 15 -6 29 9 30 32 0 17 25 28 25 11 0 -6 -5 -8 -12 -4 -7
5 -8 3 -3 -6 6 -10 11 -10 20 3 7 9 15 14 19 10 4 -4 4 0 0 10 -3 9 -11 14
-17 10 -6 -3 -7 -1 -3 6 6 8 11 9 20 2 9 -8 19 -5 36 9 12 11 26 17 30 15 5
-3 6 4 3 15 -3 12 0 20 6 20 7 0 9 -4 6 -10 -3 -5 -1 -10 5 -10 6 0 8 11 6 25
-3 13 0 28 6 31 7 4 8 2 4 -4 -4 -7 -2 -12 4 -12 6 0 8 -5 4 -12 -4 -6 -3 -8
4 -5 14 9 9 36 -9 48 -9 5 -10 9 -2 9 6 0 19 -10 27 -22 9 -12 16 -18 16 -12
0 5 -8 21 -17 34 l-17 25 22 -19 c13 -12 22 -14 22 -7 0 7 4 9 10 6 6 -3 7 1
4 10 -5 11 -2 14 10 9 9 -3 16 -1 16 6 0 6 5 8 13 4 9 -6 9 -5 -1 8 -10 12 -9
18 3 28 9 7 13 21 10 31 -4 11 -2 19 5 19 6 0 9 -3 7 -7 -3 -5 -1 -17 4 -28 8
-18 8 -17 6 5 -2 20 2 24 18 22 16 -2 17 -1 5 7 -12 8 -12 11 -1 11 8 0 4 7
-10 18 -17 15 -19 21 -9 27 8 5 11 4 7 -2 -4 -6 5 -15 20 -22 22 -10 25 -10
15 2 -7 8 -9 17 -5 20 3 4 0 7 -7 7 -10 0 -9 4 3 12 10 7 19 24 22 37 5 29 21
41 46 36 10 -2 21 0 23 4 3 4 -1 8 -9 9 -8 1 -21 3 -29 4 -8 1 -12 8 -8 17 4
10 7 11 10 3 5 -15 32 -16 32 -1 0 5 5 7 11 3 8 -4 8 0 0 15 -7 12 -8 21 -2
21 5 0 12 -6 15 -12 4 -9 5 -8 5 2 -2 29 1 41 9 36 5 -3 9 1 9 9 0 8 -4 12 -9
9 -4 -3 -8 0 -8 5 0 6 5 11 10 11 6 0 10 5 10 10 0 7 -7 7 -22 0 -21 -10 -21
-10 -6 3 10 8 14 18 10 23 -4 4 1 2 11 -5 9 -7 17 -10 17 -6 0 4 8 1 18 -6 14
-11 15 -11 5 1 -18 20 -16 35 2 20 13 -11 14 -10 9 4 -4 11 -1 16 11 16 9 0
14 -4 10 -9 -3 -5 0 -13 6 -17 7 -4 9 -3 5 4 -3 6 -2 14 4 17 8 5 7 12 -2 23
-12 14 -10 14 10 3 13 -7 28 -10 35 -7 7 2 5 5 -5 5 -9 1 -20 6 -24 13 -4 7
-3 8 5 4 6 -4 18 -3 26 4 7 6 20 10 29 8 14 -3 16 0 16 25 0 8 -4 7 -10 -3 -5
-8 -10 -10 -10 -4 0 19 13 24 28 11 13 -9 14 -9 8 0 -4 8 -2 13 4 13 6 0 8 5
5 10 -4 6 -11 7 -17 4 -7 -4 -8 -2 -4 5 4 6 12 9 17 6 5 -4 12 1 15 10 5 13 9
12 26 -7 l20 -23 -6 23 c-5 15 -3 24 8 28 8 3 12 12 9 20 -3 9 1 14 12 14 10
0 14 -5 9 -12 -4 -7 -3 -9 1 -5 16 14 15 39 -1 33 -8 -3 -13 -2 -9 3 3 5 -1
12 -7 15 -7 3 3 3 22 1 34 -5 34 -4 11 9 -20 11 -21 14 -7 19 12 5 15 3 10 -6
-5 -7 0 -6 12 3 29 22 30 24 12 17 -10 -4 -18 -2 -18 5 0 6 -6 5 -17 -3 -15
-11 -14 -10 1 9 11 12 16 22 11 22 -4 0 -3 6 4 13 8 10 7 17 -2 27 -10 12 -9
12 5 1 10 -7 15 -18 11 -25 -12 -18 -12 -36 -1 -36 6 0 8 6 5 14 -3 8 -3 17 0
20 4 3 8 17 9 31 2 18 -2 25 -14 25 -16 1 -15 2 1 11 9 5 17 15 17 22 0 7 -4
6 -10 -3 -8 -13 -10 -13 -10 2 0 9 6 19 13 21 9 4 8 6 -2 6 -11 1 -11 4 -1 16
10 13 10 19 -3 33 -15 16 -15 20 -1 33 13 14 13 16 0 16 -8 0 -12 -5 -9 -10 3
-6 2 -7 -4 -4 -5 3 -9 24 -9 46 1 22 -3 39 -9 38 -5 -1 -9 5 -10 13 0 8 -6 26
-14 39 -11 20 -11 25 0 32 11 7 10 9 -4 9 -10 0 -15 5 -12 10 3 6 1 10 -5 10
-6 0 -8 5 -5 10 3 6 1 10 -5 10 -6 0 -8 5 -5 10 3 6 1 10 -5 10 -6 0 -8 5 -5
10 3 6 1 10 -5 10 -6 0 -8 5 -5 10 3 6 2 10 -3 10 -5 0 -15 12 -23 28 -14 27
-24 42 -46 67 -7 7 -10 22 -7 32 4 13 3 15 -4 5 -7 -11 -14 -7 -31 17 -12 17
-19 35 -16 41 3 6 -1 7 -9 4 -9 -3 -16 -1 -16 5 0 6 6 11 13 11 8 0 8 3 -2 9
-8 5 -15 21 -16 35 0 20 4 26 20 26 16 0 17 2 5 9 -8 6 -17 8 -20 6 -3 -2 -6
17 -5 42 0 36 4 48 20 54 15 6 16 8 4 8 -23 1 -31 27 -14 45 10 10 11 16 3 18
-6 2 -12 16 -12 31 -1 21 3 27 19 27 16 0 17 2 5 9 -8 6 -17 8 -20 6 -3 -2 -6
17 -5 42 0 36 4 47 20 53 18 6 17 7 -4 13 -26 6 -19 29 7 25 12 -2 16 3 14 16
-2 10 1 15 7 11 7 -3 8 0 5 9 -3 9 -10 14 -14 11 -10 -6 -7 22 4 32 4 4 6 1 4
-7 -2 -8 3 -14 10 -12 8 1 11 -2 7 -9 -5 -8 -1 -8 14 1 18 9 20 14 10 26 -10
12 -10 15 2 12 8 -2 17 -7 21 -13 5 -6 8 -5 8 2 0 7 6 11 13 9 6 -1 8 -1 4 2
-4 2 -3 10 4 18 6 8 15 12 18 9 4 -2 8 2 8 10 0 8 -4 12 -8 10 -4 -3 -9 1 -12
8 -3 9 4 12 23 11 22 -1 27 2 23 17 -6 20 50 82 63 70 4 -3 1 4 -5 17 -7 13
-8 22 -2 22 6 0 8 8 5 18 -5 14 -4 14 5 2 5 -8 13 -12 16 -9 9 9 -6 40 -16 33
-15 -9 -10 3 8 17 10 8 14 9 10 2 -4 -6 -3 -14 2 -17 11 -7 9 13 -3 33 -6 9
-5 12 1 8 7 -5 11 37 11 128 0 74 -4 135 -8 135 -13 0 -18 38 -6 50 8 8 7 10
-6 5 -13 -5 -18 -2 -18 9 0 9 -5 16 -11 16 -5 0 -7 4 -4 10 3 5 1 10 -5 10 -6
0 -8 5 -5 10 3 6 1 10 -5 10 -6 0 -8 5 -4 12 4 7 3 8 -5 4 -6 -4 -14 0 -18 11
-11 27 -64 86 -142 156 -24 21 -40 41 -37 44 3 3 11 2 19 -3 7 -5 4 -1 -7 9
-27 25 -28 67 -1 67 16 0 17 2 5 9 -8 6 -17 8 -20 6 -3 -2 -6 17 -5 42 0 36 4
48 20 54 15 6 16 8 4 8 -23 1 -31 27 -14 45 10 10 11 16 3 18 -6 2 -12 16 -12
31 -1 21 3 27 19 27 16 0 17 2 5 9 -8 6 -17 8 -20 6 -3 -2 -6 17 -5 42 0 36 4
47 20 53 17 6 17 7 -5 13 -20 5 -22 9 -12 19 16 16 16 31 0 22 -7 -4 -5 2 5
14 11 12 16 26 12 34 -6 10 -5 10 5 1 10 -9 10 -15 2 -26 -7 -8 -9 -17 -5 -20
9 -9 23 -9 22 1 -5 29 6 50 36 70 19 12 34 25 34 30 -3 18 2 32 11 32 5 0 7
-8 3 -17 -5 -15 -3 -14 10 2 9 11 16 25 17 30 0 6 -5 3 -10 -5 -7 -11 -10 -11
-10 -2 0 7 -5 10 -12 6 -7 -4 -8 -3 -4 4 4 7 17 12 29 12 17 0 19 2 7 9 -8 6
-18 7 -24 4 -5 -3 -6 -1 -3 5 8 12 25 11 46 -2 11 -7 10 -3 -2 15 -22 31 -22
46 1 22 9 -10 13 -13 9 -7 -5 8 -1 16 10 23 10 6 14 11 10 11 -4 0 -3 10 4 21
6 12 7 19 1 15 -6 -4 -8 2 -5 15 6 21 6 21 20 -2 l14 -24 -6 23 c-4 13 -3 28
2 35 5 7 10 26 11 42 1 23 -1 26 -8 15 -5 -8 -10 -10 -10 -4 0 18 12 24 30 14
12 -6 17 -5 17 5 0 8 -4 12 -9 9 -4 -3 -8 0 -8 6 0 6 -5 8 -10 5 -6 -3 -10 -1
-10 5 0 7 6 10 13 7 8 -3 19 -2 26 3 10 5 9 9 -4 13 -10 5 -14 3 -9 -5 4 -7 3
-8 -5 -4 -14 9 -3 29 13 23 7 -3 13 5 14 16 1 15 -1 18 -7 9 -6 -10 -10 -8
-14 7 -3 12 -2 19 3 16 4 -3 11 2 14 11 3 8 2 12 -4 9 -6 -3 -10 -1 -10 4 0 6
5 11 11 11 6 0 3 7 -5 16 -14 14 -14 34 0 34 3 0 2 -4 -1 -10 -3 -5 -1 -10 4
-10 12 0 14 13 4 24 -8 8 -14 34 -14 59 0 9 -4 15 -8 13 -4 -3 -8 1 -8 9 0 8
3 12 7 10 4 -2 7 2 7 10 0 8 -4 12 -8 9 -4 -2 -10 0 -13 5 -4 5 2 12 11 14 13
3 11 5 -6 6 -18 1 -22 5 -18 21 3 13 0 20 -9 20 -12 0 -19 14 -11 23 3 4 -104
103 -144 133 -19 14 -33 30 -31 36 2 6 -4 8 -12 5 -9 -4 -15 -3 -15 1 1 4 1 9
0 12 -1 3 -4 20 -6 39 -2 27 1 34 18 39 20 5 20 6 1 12 -16 6 -19 17 -20 71
-1 35 -3 64 -4 64 -1 0 -3 15 -5 32 -1 18 1 31 4 28 10 -6 7 33 -4 42 -4 5 -5
3 -1 -4 3 -6 2 -14 -3 -17 -5 -4 -8 2 -6 11 1 10 0 23 -4 28 -3 6 -7 19 -8 29
-2 11 -10 39 -18 63 -8 23 -12 50 -8 59 5 13 3 15 -8 9 -12 -8 -12 -6 0 9 8 9
10 16 5 15 -23 -4 -26 2 -8 16 19 14 19 14 -2 9 -15 -4 -21 -1 -21 13 0 10 5
22 11 26 7 6 5 7 -6 4 -12 -4 -23 9 -44 51 -16 31 -27 60 -26 65 1 4 -3 7 -9
7 -5 0 -8 4 -5 9 3 5 0 11 -7 14 -6 3 -21 22 -32 43 -11 22 -29 47 -40 56 -11
10 -16 17 -11 18 5 0 -3 10 -18 21 -15 12 -25 23 -23 26 13 13 -226 217 -295
252 -39 20 -42 38 -7 46 16 4 26 11 23 16 -4 6 -11 6 -20 -2 -8 -7 -14 -7 -14
-1 0 12 29 24 41 16 5 -3 9 -1 9 5 0 6 8 8 18 5 14 -5 15 -4 2 5 -8 6 -24 8
-35 5 -16 -4 -17 -3 -5 5 8 6 23 11 34 11 12 0 16 5 13 15 -4 8 -1 17 5 21 7
5 8 2 3 -7 -7 -11 -6 -12 7 -2 8 7 18 11 21 8 4 -3 5 -2 2 2 -3 3 0 12 6 19 9
11 6 16 -12 24 -24 10 -24 10 3 7 15 -1 27 1 28 6 0 4 0 17 0 29 0 21 0 21
-22 2 l-23 -19 19 22 c15 18 22 20 38 12 13 -7 18 -7 14 -1 -3 6 -3 12 1 15 5
2 1 2 -7 0 -8 -2 -11 -1 -7 3 4 4 1 14 -6 22 -9 13 -9 14 1 8 6 -4 12 -3 12 3
0 5 -6 12 -12 15 -7 3 1 3 17 1 28 -4 29 -3 11 10 -19 15 -19 16 6 19 6 0 13
8 15 16 4 13 3 13 -6 0 -8 -12 -11 -12 -11 -1 0 11 -3 11 -17 0 -15 -12 -16
-12 -8 1 5 8 10 25 11 37 0 12 7 30 15 40 9 11 10 14 2 9 -8 -4 -14 -2 -14 6
-1 7 -3 23 -4 36 -1 12 2 25 7 28 6 4 5 10 -3 14 -7 5 -14 16 -15 24 -1 9 2
14 7 11 5 -4 6 1 3 9 -3 9 -11 16 -16 16 -6 0 -8 9 -5 20 3 13 1 18 -6 13 -6
-4 -8 0 -4 10 3 9 -1 18 -10 21 -8 4 -13 13 -10 20 3 8 3 16 -1 18 -4 2 -23
23 -42 48 -54 70 -99 107 -175 145 -155 77 -325 71 -471 -16 -151 -91 -368
-396 -444 -625 -15 -43 -27 -64 -38 -65 -106 -7 -2670 -2 -2679 4 -7 5 -13 6
-13 1 0 -5 -6 2 -14 16 -9 18 -10 29 -2 39 8 11 8 13 -1 8 -7 -5 -14 2 -19 15
-4 13 -5 23 -3 24 2 0 -3 9 -11 19 -13 17 -13 18 0 11 13 -7 13 -6 0 6 -21 19
-56 83 -40 73 8 -5 2 7 -13 27 -15 19 -27 42 -27 51 0 10 -4 17 -9 17 -14 0
-42 60 -34 73 3 6 1 7 -5 3 -13 -8 -35 28 -24 39 4 5 2 5 -4 2 -14 -8 -57 50
-48 65 4 6 3 8 -3 5 -13 -8 -36 17 -25 27 4 4 3 6 -3 5 -5 -2 -41 29 -80 69
-127 131 -308 189 -468 151z m4693 -764 c-7 -9 -15 -13 -19 -10 -3 3 1 10 9
15 21 14 24 12 10 -5z m740 -1971 c0 -8 -19 -13 -24 -6 -3 5 1 9 9 9 8 0 15
-2 15 -3z m-141 -245 c-15 -9 -32 -2 -24 11 3 5 13 6 21 3 12 -4 13 -8 3 -14z
m135 -1287 c2 -4 -5 -9 -17 -9 -17 -2 -19 0 -7 7 18 12 18 12 24 2z m-9 -32
c-3 -5 -12 -10 -18 -10 -7 0 -6 4 3 10 19 12 23 12 15 0z m-48 -62 c-3 -8 -6
-5 -6 6 -1 11 2 17 5 13 3 -3 4 -12 1 -19z m-43 -59 c-14 -15 -44 -17 -44 -2
0 3 6 3 13 0 6 -2 18 2 25 9 12 13 8 18 -11 15 -5 -1 -6 3 -2 9 5 8 11 7 21
-1 13 -10 12 -14 -2 -30z m-100 -95 c5 -13 4 -14 -7 -6 -8 7 -18 8 -22 4 -5
-4 -5 -1 -1 6 10 17 23 15 30 -4z m246 -1014 c0 -5 -2 -10 -4 -10 -3 0 -8 5
-11 10 -3 6 -1 10 4 10 6 0 11 -4 11 -10z m-87 -301 c-8 -8 -13 -7 -18 2 -5 8
-4 10 3 5 7 -4 12 -2 12 5 0 7 3 9 7 6 4 -4 2 -12 -4 -18z m-103 -79 c0 -5 -5
-10 -11 -10 -5 0 -7 5 -4 10 3 6 8 10 11 10 2 0 4 -4 4 -10z m-135 -80 c3 -6
-1 -7 -9 -4 -18 7 -21 14 -7 14 6 0 13 -4 16 -10z m-36 -86 c-6 -8 -17 -14
-23 -14 -6 0 -3 5 7 11 9 6 14 15 11 21 -4 7 -2 8 5 4 9 -6 9 -11 0 -22z m-19
-48 c0 -3 -4 -8 -10 -11 -5 -3 -10 -1 -10 4 0 6 5 11 10 11 6 0 10 -2 10 -4z
m-120 -186 c0 -5 -2 -10 -4 -10 -3 0 -8 5 -11 10 -3 6 -1 10 4 10 6 0 11 -4
11 -10z m-54 -72 c-1 -13 -6 -22 -9 -20 -4 1 -11 2 -17 2 -5 0 -10 5 -10 10 0
6 6 9 13 8 6 -2 11 3 10 10 -2 6 1 12 7 12 5 0 8 -10 6 -22z m-41 -28 c3 -5 1
-10 -4 -10 -6 0 -11 5 -11 10 0 6 2 10 4 10 3 0 8 -4 11 -10z m-104 -107 c13
-16 12 -17 -3 -4 -10 7 -18 15 -18 17 0 8 8 3 21 -13z m-17 -12 c3 -5 0 -14
-8 -20 -10 -9 -15 -8 -19 3 -4 11 -1 13 10 9 11 -4 14 -2 9 5 -4 7 -5 12 -2
12 3 0 7 -4 10 -9z m-99 -51 c-4 -6 -2 -17 5 -25 8 -10 8 -15 -2 -21 -7 -4
-10 -4 -6 1 4 4 3 14 -3 21 -10 12 -5 34 7 34 3 0 2 -5 -1 -10z m-328 -182
c-3 -8 -6 -5 -6 6 -1 11 2 17 5 13 3 -3 4 -12 1 -19z m32 9 c8 -10 7 -14 -2
-14 -8 0 -14 6 -14 14 0 7 1 13 2 13 2 0 8 -6 14 -13z"/>
<path d="M5986 6353 c-4 -9 -1 -21 5 -27 9 -8 10 -8 5 2 -4 7 -2 19 4 27 7 9
8 15 2 15 -5 0 -13 -8 -16 -17z"/>
<path d="M5989 6284 c0 -5 -2 -16 -4 -25 -1 -9 3 -16 10 -16 8 0 12 9 9 20 -4
22 -14 35 -15 21z"/>
<path d="M2027 6135 c3 -8 9 -12 14 -9 12 7 11 11 -5 17 -10 4 -13 1 -9 -8z"/>
<path d="M5815 5880 c3 -5 8 -10 11 -10 2 0 4 5 4 10 0 6 -5 10 -11 10 -5 0
-7 -4 -4 -10z"/>
<path d="M6376 5167 c3 -10 9 -15 12 -12 3 3 0 11 -7 18 -10 9 -11 8 -5 -6z"/>
<path d="M6406 5062 c-3 -5 1 -9 9 -9 8 0 12 4 9 9 -3 4 -7 8 -9 8 -2 0 -6 -4
-9 -8z"/>
<path d="M6420 4941 c0 -5 7 -12 16 -15 14 -5 15 -4 4 9 -14 17 -20 19 -20 6z"/>
<path d="M6435 4869 c-1 -28 2 -34 5 -14 1 6 6 15 11 21 6 8 5 13 -3 17 -9 3
-13 -5 -13 -24z"/>
<path d="M6430 4761 c0 -6 4 -12 8 -15 5 -3 9 1 9 9 0 8 -4 15 -9 15 -4 0 -8
-4 -8 -9z"/>
<path d="M6436 4722 c-3 -5 1 -9 9 -9 8 0 12 4 9 9 -3 4 -7 8 -9 8 -2 0 -6 -4
-9 -8z"/>
<path d="M6490 3765 c-7 -9 -10 -18 -6 -22 3 -3 6 -1 6 6 0 7 4 10 8 7 5 -3 9
1 9 9 0 19 -2 19 -17 0z"/>
<path d="M6435 3690 c-3 -6 1 -7 9 -4 18 7 21 14 7 14 -6 0 -13 -4 -16 -10z"/>
<path d="M6430 3641 c0 -6 4 -13 10 -16 6 -3 7 1 4 9 -7 18 -14 21 -14 7z"/>
<path d="M6433 3595 c0 -8 4 -12 9 -9 4 3 8 9 8 15 0 5 -4 9 -8 9 -5 0 -9 -7
-9 -15z"/>
<path d="M6441 3522 c-7 -13 -6 -19 2 -19 7 0 13 9 13 19 0 10 -1 18 -3 18 -1
0 -7 -8 -12 -18z"/>
<path d="M6430 3401 c0 -6 4 -13 10 -16 6 -3 7 1 4 9 -7 18 -14 21 -14 7z"/>
<path d="M6433 3355 c0 -8 4 -12 9 -9 4 3 8 9 8 15 0 5 -4 9 -8 9 -5 0 -9 -7
-9 -15z"/>
<path d="M6446 3292 c-2 -4 -1 -14 4 -22 7 -11 9 -9 7 8 -1 24 -3 26 -11 14z"/>
<path d="M6625 2449 c-4 -6 -5 -12 -2 -15 2 -3 7 2 10 11 7 17 1 20 -8 4z"/>
<path d="M6430 2201 c0 -6 4 -13 10 -16 6 -3 7 1 4 9 -7 18 -14 21 -14 7z"/>
<path d="M6433 2155 c0 -8 4 -12 9 -9 4 3 8 9 8 15 0 5 -4 9 -8 9 -5 0 -9 -7
-9 -15z"/>
<path d="M6441 2082 c-7 -13 -6 -19 2 -19 7 0 13 9 13 19 0 10 -1 18 -3 18 -1
0 -7 -8 -12 -18z"/>
<path d="M6430 1961 c0 -6 4 -13 10 -16 6 -3 7 1 4 9 -7 18 -14 21 -14 7z"/>
<path d="M6433 1915 c0 -8 4 -12 9 -9 4 3 8 9 8 15 0 5 -4 9 -8 9 -5 0 -9 -7
-9 -15z"/>
<path d="M6579 928 c-3 -11 -5 -48 -3 -48 11 0 23 40 14 45 -5 3 -10 5 -11 3z"/>
<path d="M450 781 c0 -6 4 -13 10 -16 6 -3 7 1 4 9 -7 18 -14 21 -14 7z"/>
<path d="M6270 594 c-7 -8 -9 -14 -5 -14 4 0 0 -11 -9 -25 -9 -14 -12 -25 -6
-25 5 0 10 5 10 11 0 5 4 7 10 4 6 -4 7 1 3 11 -5 13 -3 15 7 9 8 -5 11 -4 6
3 -3 6 1 15 10 20 14 8 14 10 1 15 -9 3 -21 -1 -27 -9z"/>
<path d="M5825 131 c-3 -5 0 -13 6 -17 7 -4 9 -3 5 4 -3 5 0 13 6 15 9 4 10 6
1 6 -6 1 -14 -3 -18 -8z"/>
<path d="M5775 110 c-3 -5 -1 -10 4 -10 6 0 11 5 11 10 0 6 -2 10 -4 10 -3 0
-8 -4 -11 -10z"/>
</g>
</svg>
